<?xml version="1.0" encoding="UTF-8"?>
<svg xmlns="http://www.w3.org/2000/svg" width="100px" height="100px"
	 viewBox="0 0 100 100" version="1.1">
	<g>
		<path fill="#277DA1"
			  d="M 50 1.488281 L 50 53.042969 C 39.125 53.042969 30.3125 32.054688 30.3125 21.179688 C 30.3125 10.304688 39.125 1.488281 50 1.488281 Z M 50 1.488281 "/>
		<path fill="#000" fill-opacity="0.3"
			  d="M 50 1.488281 L 50 53.042969 C 39.125 53.042969 30.3125 32.054688 30.3125 21.179688 C 30.3125 10.304688 39.125 1.488281 50 1.488281 Z M 50 1.488281 "/>
		<path fill="#277DA1"
			  d="M 50 53.042969 C 46.640625 63.386719 23.953125 65.28125 13.613281 61.921875 C 3.269531 58.5625 -2.390625 47.453125 0.96875 37.109375 C 4.328125 26.769531 15.4375 21.109375 25.78125 24.46875 C 36.125 27.828125 53.359375 42.699219 50 53.042969 Z M 50 53.042969 "/>
		<path fill="#000" fill-opacity="0.3"
			  d="M 50 53.042969 C 46.640625 63.386719 23.953125 65.28125 13.613281 61.921875 C 3.269531 58.5625 -2.390625 47.453125 0.96875 37.109375 Z M 50 53.042969 "/>
		<path fill="#277DA1"
			  d="M 47.203125 90.390625 C 40.808594 99.191406 28.496094 101.140625 19.699219 94.75 C 10.902344 88.355469 8.949219 76.042969 15.34375 67.246094 C 21.734375 58.445312 41.203125 46.652344 50 53.042969 C 58.796875 59.433594 53.59375 81.59375 47.203125 90.390625 Z M 47.203125 90.390625 "/>
		<path fill="#000" fill-opacity="0.3"
			  d="M 47.203125 90.390625 C 40.808594 99.191406 28.496094 101.140625 19.699219 94.75 L 50 53.042969 C 58.796875 59.433594 53.59375 81.59375 47.203125 90.390625 Z M 47.203125 90.390625 "/>
		<path fill="#277DA1"
			  d="M 80.304688 94.75 C 71.503906 101.140625 59.191406 99.191406 52.800781 90.390625 C 46.40625 81.59375 41.203125 59.433594 50 53.042969 C 58.796875 46.652344 78.265625 58.445312 84.660156 67.246094 C 91.050781 76.042969 89.101562 88.355469 80.304688 94.75 Z M 80.304688 94.75 "/>
		<path fill="#000" fill-opacity="0.3"
			  d="M 80.304688 94.75 L 50 53.042969 C 58.796875 46.652344 78.265625 58.445312 84.660156 67.246094 C 91.050781 76.042969 89.101562 88.355469 80.304688 94.75 Z M 80.304688 94.75 "/>
		<path fill="#277DA1"
			  d="M 86.386719 61.921875 C 76.046875 65.28125 53.359375 63.386719 50 53.042969 C 49.546875 51.644531 49.46875 50.160156 49.699219 48.636719 C 49.738281 48.386719 50.246094 48.167969 50.300781 47.917969 C 50.363281 47.625 49.972656 47.300781 50.054688 47.007812 C 52.71875 37.640625 65.769531 27.214844 74.21875 24.46875 C 84.5625 21.109375 95.671875 26.769531 99.03125 37.109375 C 102.390625 47.453125 96.730469 58.5625 86.386719 61.921875 Z M 86.386719 61.921875 "/>
		<path fill="#000" fill-opacity="0.3"
			  d="M 99.03125 37.109375 L 50 53.042969 C 49.671875 52.027344 49.539062 50.96875 49.578125 49.882812 C 49.601562 49.257812 50.167969 48.554688 50.300781 47.914062 C 50.429688 47.277344 50.132812 46.695312 50.363281 46.046875 C 53.601562 36.941406 66.058594 27.121094 74.21875 24.46875 C 84.5625 21.109375 95.671875 26.769531 99.03125 37.109375 Z M 99.03125 37.109375 "/>
		<path fill="#277DA1"
			  d="M 69.691406 21.179688 C 69.691406 32.054688 60.875 53.042969 50 53.042969 L 50 1.488281 C 60.875 1.488281 69.691406 10.304688 69.691406 21.179688 Z M 69.691406 21.179688 "/>
		<circle fill="#FFDE55" cx="50" cy="52" r="5"/>
	</g>
</svg>
